# xmcd
# 
# Track frame offsets:
#     150
#     37315
#     51267
#     94000
#     129622
#     152575
#     177367
#     200097
#     228322
#     256595
#     278847
#     313692
# 
# Disc length: 4569
# 
# Revision: 4
# Processed by: cddbd v1.5.2PL0 Copyright (c) Steve Scherf et al.
# Submitted via: fre:ac v1.0.17
# 
DISCID=a711d70c
DTITLE=Luther Allison - Let's Try It Again - Live '89
DYEAR=1989
DGENRE=Blues
TTITLE0=Serious
TTITLE1=Backtrack
TTITLE2=Let's Try It Again
TTITLE3=Freedom
TTITLE4=Life Is A Bitch
TTITLE5=Just Memories
TTITLE6=Fight
TTITLE7=Bad News Is Coming
TTITLE8=Just My Guitar (And Me)
TTITLE9=Now You Got It
TTITLE10=Let s Have A Little Talk
TTITLE11=The Dock Of The Bay
EXTD=featuring Bernard Allison
EXTT0=
EXTT1=
EXTT2=
EXTT3=
EXTT4=
EXTT5=
EXTT6=
EXTT7=
EXTT8=
EXTT9=
EXTT10=
EXTT11=
PLAYORDER=
